HIERARCHY
ROOT joint_Root
{
	OFFSET 0.0 0.0 0.0
	CHANNELS 6 Xposition Yposition Zposition Zrotation Xrotation Yrotation 
	JOINT Hips
	{
		OFFSET 4.5925 91.4895 -427.239
		CHANNELS 6 Xposition Yposition Zposition Zrotation Xrotation Yrotation 
		JOINT Spine
		{
			OFFSET 15.7357 0.0 0.0
			CHANNELS 6 Xposition Yposition Zposition Zrotation Xrotation Yrotation 
			JOINT Chest
			{
				OFFSET 8.98455 -0.406207 0.0
				CHANNELS 6 Xposition Yposition Zposition Zrotation Xrotation Yrotation 
				JOINT Neck
				{
					OFFSET 16.3773 0.0 0.0
					CHANNELS 6 Xposition Yposition Zposition Zrotation Xrotation Yrotation 
					JOINT Head
					{
						OFFSET 6.45672 0.0 0.0
						CHANNELS 6 Xposition Yposition Zposition Zrotation Xrotation Yrotation 
						End Site
						{
							OFFSET 0.0 0.0 0.0
						}
					}
				}
				JOINT Shoulder_L
				{
					OFFSET 12.9942 -0.242716 4.98039
					CHANNELS 6 Xposition Yposition Zposition Zrotation Xrotation Yrotation 
					JOINT UpperArm_L
					{
						OFFSET 5.34809 0.0 0.0
						CHANNELS 6 Xposition Yposition Zposition Zrotation Xrotation Yrotation 
						JOINT LowerArm_L
						{
							OFFSET 24.3286 1.87007e-05 0.0
							CHANNELS 6 Xposition Yposition Zposition Zrotation Xrotation Yrotation 
							JOINT Hand_L
							{
								OFFSET 22.2916 0.0 0.0
								CHANNELS 6 Xposition Yposition Zposition Zrotation Xrotation Yrotation 
								End Site
								{
									OFFSET 0.0 0.0 0.0
								}
							}
						}
					}
				}
				JOINT Shoulder_R
				{
					OFFSET 12.9945 -0.242716 -4.98039
					CHANNELS 6 Xposition Yposition Zposition Zrotation Xrotation Yrotation 
					JOINT UpperArm_R
					{
						OFFSET -5.34813 0.0 0.0
						CHANNELS 6 Xposition Yposition Zposition Zrotation Xrotation Yrotation 
						JOINT LowerArm_R
						{
							OFFSET -24.3289 0.000322201 0.0
							CHANNELS 6 Xposition Yposition Zposition Zrotation Xrotation Yrotation 
							JOINT Hand_R
							{
								OFFSET -22.2915 -0.000108084 0.0
								CHANNELS 6 Xposition Yposition Zposition Zrotation Xrotation Yrotation 
								End Site
								{
									OFFSET 0.0 0.0 0.0
								}
							}
						}
					}
				}
			}
		}
		JOINT UpperLeg_L
		{
			OFFSET -2.19248 -6.46944 0.0
			CHANNELS 6 Xposition Yposition Zposition Zrotation Xrotation Yrotation 
			JOINT LowerLeg_L
			{
				OFFSET 39.0811 0.0 -1.23785e-05
				CHANNELS 6 Xposition Yposition Zposition Zrotation Xrotation Yrotation 
				JOINT Foot_L
				{
					OFFSET 40.9854 0.0 -1.26872e-05
					CHANNELS 6 Xposition Yposition Zposition Zrotation Xrotation Yrotation 
					JOINT Toes_L
					{
						OFFSET 11.7543 0.0 0.0
						CHANNELS 6 Xposition Yposition Zposition Zrotation Xrotation Yrotation 
						End Site
						{
							OFFSET 0.0 0.0 0.0
						}
					}
				}
			}
		}
		JOINT UpperLeg_R
		{
			OFFSET -2.19251 6.46944 0.0
			CHANNELS 6 Xposition Yposition Zposition Zrotation Xrotation Yrotation 
			JOINT LowerLeg_R
			{
				OFFSET -39.0811 -0.00228153 -0.0401928
				CHANNELS 6 Xposition Yposition Zposition Zrotation Xrotation Yrotation 
				JOINT Foot_R
				{
					OFFSET -40.9854 0.0 0.0
					CHANNELS 6 Xposition Yposition Zposition Zrotation Xrotation Yrotation 
					JOINT Toes_R
					{
						OFFSET -11.7543 0.0 0.0
						CHANNELS 6 Xposition Yposition Zposition Zrotation Xrotation Yrotation 
						End Site
						{
							OFFSET 0.0 0.0 0.0
						}
					}
				}
			}
		}
	}
}
MOTION
Frames:	6
Frame Time:	0.0333333
0.000000 0.000000 0.000000 0.000000 0.000000 -0.000000 5.267610 91.036800 1.049310 88.252200 -22.634600 4.771510 15.735700 0.000005 -0.000001 68.521700 85.096300 -65.402900 8.984550 -0.406207 -0.000000 1.473840 -3.760280 6.282440 16.377300 -0.000001 -0.000001 8.534470 0.647388 -2.546190 6.456720 -0.000001 -0.000000 3.991130 1.014600 -0.191664 12.994200 -0.242716 4.980390 -86.428300 -8.221220 -66.418100 5.348090 -0.000007 -0.000001 -42.659500 -55.240200 -80.676900 24.328600 0.000019 0.000005 18.087500 12.882700 -55.686200 22.291600 -0.000001 0.000005 23.926100 5.311160 -0.243166 12.994500 -0.242716 -4.980390 87.533400 10.294500 -76.447500 -5.348130 -0.000001 -0.000004 -57.647900 29.060700 -10.640400 -24.328900 0.000322 -0.000009 1.570940 3.486220 -24.290200 -22.291500 -0.000108 -0.000004 15.936600 5.400930 -2.967650 -2.192480 -6.469440 -0.000000 -177.363000 -24.382200 -0.952269 39.081100 -0.000007 -0.000012 -0.149799 0.282755 27.914100 40.985400 -0.000006 -0.000013 1.140870 -3.299320 -71.964100 11.754300 -0.000000 0.000003 -0.000264 -0.002341 -16.665100 -2.192510 6.469440 -0.000001 174.002000 10.981000 174.281000 -39.081100 -0.002282 -0.040193 -0.103433 0.204938 27.512400 -40.985400 0.000008 0.000006 2.535420 23.257200 -67.691200 -11.754300 -0.000006 -0.000006 -0.000653 -0.010351 -16.994300
0.000000 0.000000 0.000000 0.000000 0.000000 -0.000000 5.130140 91.053300 0.957992 88.366600 -21.798900 4.871700 15.735700 0.000005 -0.000001 68.984800 85.051300 -65.965400 8.984550 -0.406207 -0.000000 1.581490 -3.710280 6.086480 16.377300 -0.000001 -0.000001 8.321510 0.566377 -2.647160 6.456720 -0.000001 -0.000000 3.943220 1.012080 -0.683113 12.994200 -0.242716 4.980390 -86.715400 -7.585160 -66.501900 5.348090 -0.000007 -0.000001 -43.607200 -53.970500 -78.626400 24.328600 0.000019 0.000005 15.899900 9.097910 -60.973400 22.291600 -0.000001 0.000005 22.595400 5.324750 -0.634152 12.994500 -0.242716 -4.980390 87.503200 10.332300 -76.335600 -5.348130 -0.000001 -0.000004 -57.839700 28.813300 -10.683200 -24.328900 0.000322 -0.000009 1.377350 3.063690 -24.238300 -22.291500 -0.000108 -0.000004 16.186900 5.403890 -3.064140 -2.192480 -6.469440 -0.000000 -177.308000 -24.115300 -0.971489 39.081100 -0.000007 -0.000012 -0.148517 0.280380 27.910400 40.985400 -0.000006 -0.000013 1.226270 -2.685800 -71.841200 11.754300 -0.000000 0.000003 -0.000255 -0.002271 -16.662600 -2.192510 6.469440 -0.000001 173.927000 11.491300 174.461000 -39.081100 -0.002282 -0.040193 -0.111828 0.221028 27.515400 -40.985400 0.000008 0.000006 2.437510 22.949900 -67.691300 -11.754300 -0.000006 -0.000006 -0.000679 -0.010733 -17.009800
0.000000 0.000000 0.000000 0.000000 0.000000 -0.000000 4.970070 91.079600 0.832464 88.444400 -20.845600 4.918340 15.735700 0.000005 -0.000001 69.916500 85.013900 -66.997900 8.984550 -0.406207 -0.000000 1.700950 -3.576730 5.886690 16.377300 -0.000001 -0.000001 8.130150 0.522955 -2.645300 6.456720 -0.000001 -0.000000 3.643190 1.133970 -1.077180 12.994200 -0.242716 4.980390 -87.119100 -6.717120 -66.721000 5.348090 -0.000007 -0.000001 -43.663100 -52.016500 -74.837700 24.328600 0.000019 0.000005 14.013600 5.734590 -68.188400 22.291600 -0.000001 0.000005 21.253200 5.333450 -0.886322 12.994500 -0.242716 -4.980390 87.478300 10.336800 -76.209700 -5.348130 -0.000001 -0.000004 -58.108900 28.701700 -10.596100 -24.328900 0.000322 -0.000009 1.179890 2.647850 -24.047600 -22.291500 -0.000108 -0.000004 16.119600 5.411540 -3.316110 -2.192480 -6.469440 -0.000000 -177.246000 -23.719100 -1.083630 39.081100 -0.000007 -0.000012 -0.146101 0.275784 27.913400 40.985400 -0.000006 -0.000013 1.293080 -2.098550 -71.681500 11.754300 -0.000000 0.000003 -0.000266 -0.002350 -16.665400 -2.192510 6.469440 -0.000001 173.922000 12.045100 174.627000 -39.081100 -0.002282 -0.040193 -0.117079 0.231637 27.461900 -40.985400 0.000008 0.000006 2.344140 22.596900 -67.657800 -11.754300 -0.000006 -0.000006 -0.000682 -0.010780 -17.011700
0.000000 0.000000 0.000000 0.000000 0.000000 -0.000000 4.786320 91.098900 0.694526 88.576000 -19.835800 4.974220 15.735700 0.000005 -0.000001 71.263700 84.978300 -68.505500 8.984550 -0.406207 -0.000000 1.835420 -3.366810 5.566430 16.377300 -0.000001 -0.000001 7.772230 0.522165 -2.429510 6.456720 -0.000001 -0.000000 3.416220 1.325840 -1.380080 12.994200 -0.242716 4.980390 -87.556500 -5.829590 -67.211300 5.348090 -0.000007 -0.000001 -42.752800 -49.328700 -69.094000 24.328600 0.000019 0.000005 13.326300 3.154010 -76.927500 22.291600 -0.000001 0.000005 20.050400 5.329900 -0.782588 12.994500 -0.242716 -4.980390 87.454800 10.416100 -76.186900 -5.348130 -0.000001 -0.000004 -58.426000 28.841600 -10.274300 -24.328900 0.000322 -0.000009 1.067160 2.411810 -23.898000 -22.291500 -0.000108 -0.000004 15.961000 5.413800 -3.391350 -2.192480 -6.469440 -0.000000 -177.245000 -23.209800 -1.220150 39.081100 -0.000007 -0.000012 -0.144244 0.272127 27.926500 40.985400 -0.000006 -0.000013 1.335620 -1.546350 -71.520500 11.754300 -0.000000 0.000003 -0.000261 -0.002314 -16.664100 -2.192510 6.469440 -0.000001 173.885000 12.603000 174.753000 -39.081100 -0.002282 -0.040193 -0.124547 0.245792 27.482400 -40.985400 0.000008 0.000006 2.184960 22.142600 -67.633400 -11.754300 -0.000006 -0.000006 -0.000632 -0.010029 -16.981200
0.000000 0.000000 0.000000 0.000000 0.000000 -0.000000 4.572790 91.117900 0.531077 88.682800 -18.663600 5.032520 15.735700 0.000005 -0.000001 72.616400 84.944300 -70.040400 8.984550 -0.406207 -0.000000 1.962380 -3.149360 5.202190 16.377300 -0.000001 -0.000001 7.430580 0.459724 -2.053570 6.456720 -0.000001 -0.000000 3.211690 1.423440 -1.572780 12.994200 -0.242716 4.980390 -88.052600 -4.812730 -67.939700 5.348090 -0.000007 -0.000001 -41.392800 -45.512200 -62.242000 24.328600 0.000019 0.000005 13.113000 0.954578 -85.910800 22.291600 -0.000001 0.000005 18.939700 5.334290 -0.911583 12.994500 -0.242716 -4.980390 87.453300 10.443100 -76.213200 -5.348130 -0.000001 -0.000004 -58.861600 29.292400 -9.839930 -24.328900 0.000322 -0.000009 1.035770 2.386870 -23.488000 -22.291500 -0.000108 -0.000004 15.879200 5.413530 -3.382510 -2.192480 -6.469440 -0.000000 -177.216000 -22.574800 -1.404630 39.081100 -0.000007 -0.000012 -0.143069 0.269234 27.986100 40.985400 -0.000006 -0.000013 1.366330 -0.980966 -71.349000 11.754300 -0.000000 0.000003 -0.000277 -0.002431 -16.668400 -2.192510 6.469440 -0.000001 173.873000 13.226500 174.914000 -39.081100 -0.002282 -0.040193 -0.134683 0.265140 27.494500 -40.985400 0.000008 0.000006 2.052410 21.632000 -67.627700 -11.754300 -0.000006 -0.000006 -0.000722 -0.011379 -17.036000
0.000000 0.000000 0.000000 0.000000 0.000000 -0.000000 4.349000 91.139700 0.348284 88.739500 -17.396700 5.072210 15.735700 0.000005 -0.000001 74.261000 84.891400 -71.877400 8.984550 -0.406207 -0.000000 2.135230 -2.886610 4.817300 16.377300 -0.000001 -0.000001 6.830440 0.314387 -1.594400 6.456720 -0.000001 -0.000000 3.109890 1.510150 -1.669980 12.994200 -0.242716 4.980390 -88.587700 -3.596300 -68.543200 5.348090 -0.000007 -0.000001 -39.511000 -39.820700 -54.726500 24.328600 0.000019 0.000005 12.479200 -0.870504 -93.931700 22.291600 -0.000001 0.000005 19.079000 5.340370 -1.089560 12.994500 -0.242716 -4.980390 87.428500 10.503200 -76.159400 -5.348130 -0.000001 -0.000004 -59.272800 30.000900 -9.421490 -24.328900 0.000322 -0.000009 0.971442 2.298850 -22.937300 -22.291500 -0.000108 -0.000004 15.669700 5.413230 -3.372510 -2.192480 -6.469440 -0.000000 -177.181000 -21.721600 -1.679710 39.081100 -0.000007 -0.000012 -0.142931 0.267740 28.095400 40.985400 -0.000006 -0.000013 1.356580 -0.558251 -71.154900 11.754300 -0.000000 0.000003 -0.000276 -0.002428 -16.668300 -2.192510 6.469440 -0.000001 173.930000 13.949900 175.085000 -39.081100 -0.002282 -0.040193 -0.138671 0.272913 27.485000 -40.985400 0.000008 0.000006 1.971500 21.105000 -67.623100 -11.754300 -0.000006 -0.000006 -0.000656 -0.010398 -16.996200
